<mxfile host="65bd71144e">
    <diagram id="aXGhBuVz9r-DT4zXBizx" name="Page-1">
        <mxGraphModel dx="3105" dy="2639" grid="0" gridSize="10" guides="1" tooltips="1" connect="1" arrows="1" fold="1" page="1" pageScale="1" pageWidth="827" pageHeight="1169" background="#FFFFFF" math="0" shadow="0">
            <root>
                <mxCell id="0"/>
                <mxCell id="1" parent="0"/>
                <mxCell id="13" style="edgeStyle=none;html=1;exitX=1;exitY=0.5;exitDx=0;exitDy=0;entryX=0;entryY=0.5;entryDx=0;entryDy=0;fontFamily=Times New Roman;fontSize=14;fontColor=#000000;strokeColor=#0e0101;strokeWidth=2;" edge="1" parent="1" source="3" target="5">
                    <mxGeometry relative="1" as="geometry">
                        <Array as="points"/>
                    </mxGeometry>
                </mxCell>
                <mxCell id="14" style="edgeStyle=none;html=1;exitX=0.25;exitY=0;exitDx=0;exitDy=0;strokeColor=#0e0101;strokeWidth=2;fontFamily=Times New Roman;fontSize=14;fontColor=#000000;" edge="1" parent="1" source="3" target="6">
                    <mxGeometry relative="1" as="geometry"/>
                </mxCell>
                <mxCell id="15" style="edgeStyle=none;html=1;exitX=0;exitY=0;exitDx=0;exitDy=0;strokeColor=#0e0101;strokeWidth=2;fontFamily=Times New Roman;fontSize=14;fontColor=#000000;" edge="1" parent="1" source="3" target="9">
                    <mxGeometry relative="1" as="geometry"/>
                </mxCell>
                <mxCell id="16" style="edgeStyle=none;html=1;exitX=0;exitY=0.5;exitDx=0;exitDy=0;strokeColor=#0e0101;strokeWidth=2;fontFamily=Times New Roman;fontSize=14;fontColor=#000000;" edge="1" parent="1" source="3" target="10">
                    <mxGeometry relative="1" as="geometry"/>
                </mxCell>
                <mxCell id="17" style="edgeStyle=none;html=1;exitX=0;exitY=1;exitDx=0;exitDy=0;entryX=1;entryY=0;entryDx=0;entryDy=0;strokeColor=#0e0101;strokeWidth=2;fontFamily=Times New Roman;fontSize=14;fontColor=#000000;" edge="1" parent="1" source="3" target="11">
                    <mxGeometry relative="1" as="geometry"/>
                </mxCell>
                <mxCell id="18" style="edgeStyle=none;html=1;exitX=0.25;exitY=1;exitDx=0;exitDy=0;strokeColor=#0e0101;strokeWidth=2;fontFamily=Times New Roman;fontSize=14;fontColor=#000000;" edge="1" parent="1" source="3" target="12">
                    <mxGeometry relative="1" as="geometry"/>
                </mxCell>
                <mxCell id="19" style="edgeStyle=none;html=1;exitX=0.5;exitY=0;exitDx=0;exitDy=0;entryX=0.273;entryY=1;entryDx=0;entryDy=0;entryPerimeter=0;strokeColor=#0e0101;strokeWidth=2;fontFamily=Times New Roman;fontSize=14;fontColor=#000000;" edge="1" parent="1" source="3" target="7">
                    <mxGeometry relative="1" as="geometry"/>
                </mxCell>
                <mxCell id="20" style="edgeStyle=none;html=1;exitX=0.75;exitY=0;exitDx=0;exitDy=0;entryX=0;entryY=1;entryDx=0;entryDy=0;strokeColor=#0e0101;strokeWidth=2;fontFamily=Times New Roman;fontSize=14;fontColor=#000000;" edge="1" parent="1" source="3" target="8">
                    <mxGeometry relative="1" as="geometry"/>
                </mxCell>
                <mxCell id="39" style="edgeStyle=none;html=1;exitX=0.5;exitY=1;exitDx=0;exitDy=0;strokeColor=#0e0101;strokeWidth=2;fontFamily=Times New Roman;fontSize=18;fontColor=#000000;" edge="1" parent="1" source="3" target="38">
                    <mxGeometry relative="1" as="geometry"/>
                </mxCell>
                <mxCell id="3" value="&lt;font style=&quot;font-size: 18px;&quot; face=&quot;Times New Roman&quot; color=&quot;#000000&quot;&gt;&lt;b&gt;Student&lt;/b&gt;&lt;/font&gt;" style="whiteSpace=wrap;html=1;fillColor=#FFFFFF;strokeColor=#36393d;strokeWidth=2;" parent="1" vertex="1">
                    <mxGeometry x="80" y="40" width="190" height="80" as="geometry"/>
                </mxCell>
                <mxCell id="52" style="edgeStyle=none;html=1;exitX=0.5;exitY=1;exitDx=0;exitDy=0;entryX=0.433;entryY=-0.075;entryDx=0;entryDy=0;entryPerimeter=0;strokeColor=#0e0101;strokeWidth=2;fontFamily=Times New Roman;fontSize=17;fontColor=#0e0101;" edge="1" parent="1" source="4" target="50">
                    <mxGeometry relative="1" as="geometry"/>
                </mxCell>
                <mxCell id="53" style="edgeStyle=none;html=1;exitX=1;exitY=1;exitDx=0;exitDy=0;entryX=0.318;entryY=0;entryDx=0;entryDy=0;entryPerimeter=0;strokeColor=#0e0101;strokeWidth=2;fontFamily=Times New Roman;fontSize=17;fontColor=#0e0101;" edge="1" parent="1" source="4" target="49">
                    <mxGeometry relative="1" as="geometry"/>
                </mxCell>
                <mxCell id="54" style="edgeStyle=none;html=1;exitX=1;exitY=0.5;exitDx=0;exitDy=0;strokeColor=#0e0101;strokeWidth=2;fontFamily=Times New Roman;fontSize=17;fontColor=#0e0101;" edge="1" parent="1" source="4" target="51">
                    <mxGeometry relative="1" as="geometry"/>
                </mxCell>
                <mxCell id="4" value="&lt;font color=&quot;#0e0101&quot; style=&quot;font-size: 17px;&quot; face=&quot;Times New Roman&quot;&gt;&lt;b&gt;Subject&lt;/b&gt;&lt;/font&gt;" style="whiteSpace=wrap;html=1;fillColor=#FFFFFF;strokeColor=#36393d;" parent="1" vertex="1">
                    <mxGeometry x="665" y="600" width="190" height="80" as="geometry"/>
                </mxCell>
                <mxCell id="29" style="edgeStyle=none;html=1;exitX=0;exitY=0;exitDx=0;exitDy=0;strokeColor=#0e0101;strokeWidth=2;fontFamily=Times New Roman;fontSize=18;fontColor=#000000;" edge="1" parent="1" source="5" target="28">
                    <mxGeometry relative="1" as="geometry"/>
                </mxCell>
                <mxCell id="30" style="edgeStyle=none;html=1;exitX=0.25;exitY=0;exitDx=0;exitDy=0;strokeColor=#0e0101;strokeWidth=2;fontFamily=Times New Roman;fontSize=18;fontColor=#000000;" edge="1" parent="1" source="5" target="26">
                    <mxGeometry relative="1" as="geometry"/>
                </mxCell>
                <mxCell id="31" style="edgeStyle=none;html=1;exitX=0.75;exitY=0;exitDx=0;exitDy=0;strokeColor=#0e0101;strokeWidth=2;fontFamily=Times New Roman;fontSize=18;fontColor=#000000;" edge="1" parent="1" source="5" target="27">
                    <mxGeometry relative="1" as="geometry"/>
                </mxCell>
                <mxCell id="34" style="edgeStyle=none;html=1;exitX=0.5;exitY=1;exitDx=0;exitDy=0;strokeColor=#0e0101;strokeWidth=2;fontFamily=Times New Roman;fontSize=18;fontColor=#000000;" edge="1" parent="1" target="21">
                    <mxGeometry relative="1" as="geometry">
                        <mxPoint x="759" y="120" as="sourcePoint"/>
                        <mxPoint x="762.5564304461941" y="251.58792650918622" as="targetPoint"/>
                    </mxGeometry>
                </mxCell>
                <mxCell id="5" value="&lt;font color=&quot;#000000&quot; style=&quot;font-size: 18px;&quot; face=&quot;Times New Roman&quot;&gt;&lt;b&gt;&lt;u&gt;Course&lt;/u&gt;&lt;/b&gt;&lt;/font&gt;" style="whiteSpace=wrap;html=1;fillColor=#FFFFFF;strokeColor=#36393d;strokestyle=dotted;" parent="1" vertex="1">
                    <mxGeometry x="660" y="40" width="190" height="80" as="geometry"/>
                </mxCell>
                <mxCell id="75" style="edgeStyle=none;html=1;exitX=1;exitY=0;exitDx=0;exitDy=0;strokeColor=#0e0101;strokeWidth=2;fontFamily=Times New Roman;fontSize=17;fontColor=#0e0101;" edge="1" parent="1" source="6" target="74">
                    <mxGeometry relative="1" as="geometry"/>
                </mxCell>
                <mxCell id="6" value="&lt;font style=&quot;font-size: 14px;&quot; face=&quot;Times New Roman&quot; color=&quot;#000000&quot;&gt;&lt;b&gt;stdId&lt;/b&gt;&lt;/font&gt;" style="ellipse;whiteSpace=wrap;html=1;fillColor=#ffffff;strokeWidth=2;strokeColor=#0e0101;" vertex="1" parent="1">
                    <mxGeometry x="50" y="-80" width="110" height="50" as="geometry"/>
                </mxCell>
                <mxCell id="76" style="edgeStyle=none;html=1;exitX=0;exitY=0;exitDx=0;exitDy=0;entryX=0.5;entryY=1;entryDx=0;entryDy=0;strokeColor=#0e0101;strokeWidth=2;fontFamily=Times New Roman;fontSize=17;fontColor=#0e0101;" edge="1" parent="1" source="7" target="74">
                    <mxGeometry relative="1" as="geometry"/>
                </mxCell>
                <mxCell id="7" value="&lt;font face=&quot;Times New Roman&quot; color=&quot;#000000&quot;&gt;&lt;span style=&quot;font-size: 14px;&quot;&gt;&lt;b&gt;stdname&lt;/b&gt;&lt;/span&gt;&lt;/font&gt;" style="ellipse;whiteSpace=wrap;html=1;fillColor=#ffffff;strokeWidth=2;strokeColor=#050000;" vertex="1" parent="1">
                    <mxGeometry x="180" y="-80" width="110" height="50" as="geometry"/>
                </mxCell>
                <mxCell id="78" style="edgeStyle=none;html=1;exitX=0.5;exitY=0;exitDx=0;exitDy=0;entryX=0.25;entryY=1;entryDx=0;entryDy=0;strokeColor=#0e0101;strokeWidth=2;fontFamily=Times New Roman;fontSize=18;fontColor=#0e0101;" edge="1" parent="1" source="8" target="77">
                    <mxGeometry relative="1" as="geometry"/>
                </mxCell>
                <mxCell id="8" value="&lt;font face=&quot;Times New Roman&quot; color=&quot;#000000&quot;&gt;&lt;span style=&quot;font-size: 14px;&quot;&gt;&lt;b&gt;course-semester&lt;/b&gt;&lt;/span&gt;&lt;/font&gt;" style="ellipse;whiteSpace=wrap;html=1;fillColor=#ffffff;strokeWidth=2;strokeColor=#0e0101;" vertex="1" parent="1">
                    <mxGeometry x="280" y="-30" width="110" height="50" as="geometry"/>
                </mxCell>
                <mxCell id="9" value="&lt;font style=&quot;font-size: 14px;&quot; face=&quot;Times New Roman&quot; color=&quot;#000000&quot;&gt;&lt;b&gt;address&lt;/b&gt;&lt;/font&gt;" style="ellipse;whiteSpace=wrap;html=1;fillColor=#ffffff;strokeWidth=2;strokeColor=#0e0101;" vertex="1" parent="1">
                    <mxGeometry x="-60" y="-30" width="110" height="50" as="geometry"/>
                </mxCell>
                <mxCell id="10" value="&lt;font style=&quot;font-size: 14px;&quot; face=&quot;Times New Roman&quot; color=&quot;#000000&quot;&gt;&lt;b&gt;gender&lt;/b&gt;&lt;/font&gt;" style="ellipse;whiteSpace=wrap;html=1;fillColor=#ffffff;strokeWidth=2;strokeColor=#0e0101;" vertex="1" parent="1">
                    <mxGeometry x="-70" y="50" width="110" height="50" as="geometry"/>
                </mxCell>
                <mxCell id="11" value="&lt;font style=&quot;font-size: 14px;&quot; face=&quot;Times New Roman&quot; color=&quot;#000000&quot;&gt;&lt;b&gt;phone&lt;/b&gt;&lt;/font&gt;" style="ellipse;whiteSpace=wrap;html=1;fillColor=#ffffff;strokeWidth=2;strokeColor=#0e0101;" vertex="1" parent="1">
                    <mxGeometry x="-60" y="140" width="110" height="50" as="geometry"/>
                </mxCell>
                <mxCell id="12" value="&lt;font face=&quot;Times New Roman&quot; color=&quot;#000000&quot;&gt;&lt;span style=&quot;font-size: 14px;&quot;&gt;&lt;b&gt;email&lt;/b&gt;&lt;/span&gt;&lt;/font&gt;" style="ellipse;whiteSpace=wrap;html=1;fillColor=#ffffff;strokeWidth=2;strokeColor=#0e0101;" vertex="1" parent="1">
                    <mxGeometry x="20" y="210" width="110" height="50" as="geometry"/>
                </mxCell>
                <mxCell id="37" style="edgeStyle=none;html=1;exitX=1;exitY=0.5;exitDx=0;exitDy=0;strokeColor=#0e0101;strokeWidth=2;fontFamily=Times New Roman;fontSize=18;fontColor=#000000;" edge="1" parent="1" source="21" target="35">
                    <mxGeometry relative="1" as="geometry"/>
                </mxCell>
                <mxCell id="44" style="edgeStyle=none;html=1;exitX=0.5;exitY=1;exitDx=0;exitDy=0;strokeColor=#0e0101;strokeWidth=2;fontFamily=Times New Roman;fontSize=18;fontColor=#000000;" edge="1" parent="1" source="21" target="4">
                    <mxGeometry relative="1" as="geometry"/>
                </mxCell>
                <mxCell id="21" value="&lt;b&gt;has&lt;/b&gt;" style="rhombus;whiteSpace=wrap;html=1;strokeColor=#0e0101;strokeWidth=2;fontFamily=Times New Roman;fontSize=18;fontColor=#000000;fillColor=#ffffff;" vertex="1" parent="1">
                    <mxGeometry x="710" y="270" width="100" height="110" as="geometry"/>
                </mxCell>
                <mxCell id="25" style="edgeStyle=none;html=1;exitX=0.5;exitY=0;exitDx=0;exitDy=0;entryX=0.5;entryY=1;entryDx=0;entryDy=0;strokeColor=#0e0101;strokeWidth=2;fontFamily=Times New Roman;fontSize=18;fontColor=#000000;" edge="1" parent="1" source="22" target="23">
                    <mxGeometry relative="1" as="geometry"/>
                </mxCell>
                <mxCell id="22" value="&lt;b&gt;enroll&lt;/b&gt;" style="rhombus;whiteSpace=wrap;html=1;strokeColor=#0e0101;strokeWidth=2;fontFamily=Times New Roman;fontSize=18;fontColor=#000000;fillColor=#ffffff;" vertex="1" parent="1">
                    <mxGeometry x="413.5" y="30" width="106" height="100" as="geometry"/>
                </mxCell>
                <mxCell id="23" value="&lt;span style=&quot;font-size: 14px;&quot;&gt;&lt;b&gt;date&lt;/b&gt;&lt;/span&gt;" style="ellipse;whiteSpace=wrap;html=1;fillColor=#ffffff;strokeWidth=2;strokeColor=#0e0101;fontFamily=Times New Roman;fontSize=18;fontColor=#000000;" vertex="1" parent="1">
                    <mxGeometry x="414" y="-110" width="110" height="50" as="geometry"/>
                </mxCell>
                <mxCell id="81" style="edgeStyle=none;html=1;exitX=0.5;exitY=0;exitDx=0;exitDy=0;entryX=0.5;entryY=1;entryDx=0;entryDy=0;strokeColor=#0e0101;strokeWidth=2;fontFamily=Times New Roman;fontSize=18;fontColor=#0e0101;" edge="1" parent="1" source="26" target="79">
                    <mxGeometry relative="1" as="geometry"/>
                </mxCell>
                <mxCell id="26" value="&lt;span style=&quot;font-size: 14px;&quot;&gt;&lt;b&gt;CourseId&lt;/b&gt;&lt;/span&gt;" style="ellipse;whiteSpace=wrap;html=1;fillColor=#ffffff;strokeWidth=2;strokeColor=#0e0101;fontFamily=Times New Roman;fontSize=18;fontColor=#000000;" vertex="1" parent="1">
                    <mxGeometry x="660" y="-80" width="110" height="50" as="geometry"/>
                </mxCell>
                <mxCell id="27" value="&lt;span style=&quot;font-size: 14px;&quot;&gt;&lt;b&gt;CourseName&lt;/b&gt;&lt;/span&gt;" style="ellipse;whiteSpace=wrap;html=1;fillColor=#ffffff;strokeWidth=2;strokeColor=#0e0101;fontFamily=Times New Roman;fontSize=18;fontColor=#000000;" vertex="1" parent="1">
                    <mxGeometry x="800" y="-60" width="110" height="50" as="geometry"/>
                </mxCell>
                <mxCell id="28" value="&lt;span style=&quot;font-size: 14px;&quot;&gt;&lt;b&gt;semester-name&lt;/b&gt;&lt;/span&gt;" style="ellipse;whiteSpace=wrap;html=1;fillColor=#ffffff;strokeWidth=2;strokeColor=#0e0101;fontFamily=Times New Roman;fontSize=18;fontColor=#000000;" vertex="1" parent="1">
                    <mxGeometry x="560" y="-30" width="110" height="50" as="geometry"/>
                </mxCell>
                <mxCell id="35" value="&lt;span style=&quot;font-size: 14px;&quot;&gt;&lt;b&gt;Semester&lt;/b&gt;&lt;/span&gt;" style="ellipse;whiteSpace=wrap;html=1;fillColor=#ffffff;strokeWidth=2;strokeColor=#0e0101;fontFamily=Times New Roman;fontSize=18;fontColor=#000000;" vertex="1" parent="1">
                    <mxGeometry x="910" y="300" width="110" height="50" as="geometry"/>
                </mxCell>
                <mxCell id="43" style="edgeStyle=none;html=1;exitX=0.5;exitY=1;exitDx=0;exitDy=0;strokeColor=#0e0101;strokeWidth=2;fontFamily=Times New Roman;fontSize=18;fontColor=#000000;" edge="1" parent="1" source="38" target="40">
                    <mxGeometry relative="1" as="geometry"/>
                </mxCell>
                <mxCell id="47" style="edgeStyle=none;html=1;exitX=1;exitY=0.5;exitDx=0;exitDy=0;entryX=0;entryY=0;entryDx=0;entryDy=0;strokeColor=#0e0101;strokeWidth=2;fontFamily=Times New Roman;fontSize=17;fontColor=#0e0101;" edge="1" parent="1" source="38" target="4">
                    <mxGeometry relative="1" as="geometry"/>
                </mxCell>
                <mxCell id="72" style="edgeStyle=none;html=1;exitX=1;exitY=0.5;exitDx=0;exitDy=0;entryX=0;entryY=0.5;entryDx=0;entryDy=0;strokeColor=#0e0101;strokeWidth=2;fontFamily=Times New Roman;fontSize=17;fontColor=#0e0101;" edge="1" parent="1" source="38" target="70">
                    <mxGeometry relative="1" as="geometry"/>
                </mxCell>
                <mxCell id="38" value="&lt;b&gt;takes&lt;/b&gt;" style="rhombus;whiteSpace=wrap;html=1;strokeColor=#0e0101;strokeWidth=2;fontFamily=Times New Roman;fontSize=18;fontColor=#000000;fillColor=#ffffff;" vertex="1" parent="1">
                    <mxGeometry x="125" y="300" width="100" height="110" as="geometry"/>
                </mxCell>
                <mxCell id="57" style="edgeStyle=none;html=1;exitX=0;exitY=1;exitDx=0;exitDy=0;strokeColor=#0e0101;strokeWidth=2;fontFamily=Times New Roman;fontSize=17;fontColor=#0e0101;" edge="1" parent="1" source="40" target="55">
                    <mxGeometry relative="1" as="geometry"/>
                </mxCell>
                <mxCell id="58" style="edgeStyle=none;html=1;exitX=1;exitY=1;exitDx=0;exitDy=0;strokeColor=#0e0101;strokeWidth=2;fontFamily=Times New Roman;fontSize=17;fontColor=#0e0101;" edge="1" parent="1" source="40" target="56">
                    <mxGeometry relative="1" as="geometry"/>
                </mxCell>
                <mxCell id="60" style="edgeStyle=none;html=1;exitX=0.5;exitY=1;exitDx=0;exitDy=0;strokeColor=#0e0101;strokeWidth=2;fontFamily=Times New Roman;fontSize=17;fontColor=#0e0101;" edge="1" parent="1" source="40" target="59">
                    <mxGeometry relative="1" as="geometry"/>
                </mxCell>
                <mxCell id="40" value="&lt;font color=&quot;#0d0202&quot; style=&quot;font-size: 18px;&quot; face=&quot;Times New Roman&quot;&gt;&lt;b&gt;Exam&lt;/b&gt;&lt;/font&gt;" style="whiteSpace=wrap;html=1;fillColor=#FFFFFF;strokeColor=#36393d;" vertex="1" parent="1">
                    <mxGeometry x="80" y="590" width="190" height="80" as="geometry"/>
                </mxCell>
                <mxCell id="46" style="edgeStyle=none;html=1;exitX=1;exitY=0.5;exitDx=0;exitDy=0;strokeColor=#0e0101;strokeWidth=2;fontFamily=Times New Roman;fontSize=17;fontColor=#0e0101;" edge="1" parent="1" source="45" target="38">
                    <mxGeometry relative="1" as="geometry"/>
                </mxCell>
                <mxCell id="45" value="&lt;font face=&quot;Times New Roman&quot; color=&quot;#000000&quot;&gt;&lt;span style=&quot;font-size: 14px;&quot;&gt;&lt;b&gt;date&lt;/b&gt;&lt;/span&gt;&lt;/font&gt;" style="ellipse;whiteSpace=wrap;html=1;fillColor=#ffffff;strokeWidth=2;strokeColor=#0e0101;" vertex="1" parent="1">
                    <mxGeometry x="-110" y="330" width="110" height="50" as="geometry"/>
                </mxCell>
                <mxCell id="49" value="&lt;span style=&quot;font-size: 14px;&quot;&gt;&lt;b&gt;subName&lt;/b&gt;&lt;/span&gt;" style="ellipse;whiteSpace=wrap;html=1;fillColor=#ffffff;strokeWidth=2;strokeColor=#0e0101;fontFamily=Times New Roman;fontSize=18;fontColor=#000000;" vertex="1" parent="1">
                    <mxGeometry x="855" y="720" width="110" height="50" as="geometry"/>
                </mxCell>
                <mxCell id="87" style="edgeStyle=none;html=1;strokeColor=#0e0101;strokeWidth=2;fontFamily=Times New Roman;fontSize=18;fontColor=#0e0101;" edge="1" parent="1" source="50" target="85">
                    <mxGeometry relative="1" as="geometry"/>
                </mxCell>
                <mxCell id="91" value="" style="edgeStyle=none;html=1;strokeColor=#0e0101;strokeWidth=2;fontFamily=Times New Roman;fontSize=18;fontColor=#0e0101;" edge="1" parent="1" source="50" target="85">
                    <mxGeometry relative="1" as="geometry"/>
                </mxCell>
                <mxCell id="50" value="&lt;span style=&quot;font-size: 14px;&quot;&gt;&lt;b&gt;subCode&lt;/b&gt;&lt;/span&gt;" style="ellipse;whiteSpace=wrap;html=1;fillColor=#ffffff;strokeWidth=2;strokeColor=#0e0101;fontFamily=Times New Roman;fontSize=18;fontColor=#000000;" vertex="1" parent="1">
                    <mxGeometry x="710" y="740" width="110" height="50" as="geometry"/>
                </mxCell>
                <mxCell id="89" style="edgeStyle=none;html=1;exitX=0.5;exitY=0;exitDx=0;exitDy=0;entryX=0.53;entryY=1.125;entryDx=0;entryDy=0;entryPerimeter=0;strokeColor=#0e0101;strokeWidth=2;fontFamily=Times New Roman;fontSize=18;fontColor=#0e0101;" edge="1" parent="1" source="51" target="88">
                    <mxGeometry relative="1" as="geometry"/>
                </mxCell>
                <mxCell id="51" value="&lt;span style=&quot;font-size: 14px;&quot;&gt;&lt;b&gt;courseId&lt;/b&gt;&lt;/span&gt;" style="ellipse;whiteSpace=wrap;html=1;fillColor=#ffffff;strokeWidth=2;strokeColor=#0e0101;fontFamily=Times New Roman;fontSize=18;fontColor=#000000;" vertex="1" parent="1">
                    <mxGeometry x="910" y="620" width="110" height="50" as="geometry"/>
                </mxCell>
                <mxCell id="55" value="&lt;font face=&quot;Times New Roman&quot; color=&quot;#000000&quot;&gt;&lt;span style=&quot;font-size: 14px;&quot;&gt;&lt;b&gt;examId&lt;/b&gt;&lt;/span&gt;&lt;/font&gt;" style="ellipse;whiteSpace=wrap;html=1;fillColor=#ffffff;strokeWidth=2;strokeColor=#0e0101;" vertex="1" parent="1">
                    <mxGeometry x="-60" y="690" width="110" height="50" as="geometry"/>
                </mxCell>
                <mxCell id="56" value="&lt;font face=&quot;Times New Roman&quot; color=&quot;#000000&quot;&gt;&lt;span style=&quot;font-size: 14px;&quot;&gt;&lt;b&gt;examName&lt;/b&gt;&lt;/span&gt;&lt;/font&gt;" style="ellipse;whiteSpace=wrap;html=1;fillColor=#ffffff;strokeWidth=2;strokeColor=#0e0101;" vertex="1" parent="1">
                    <mxGeometry x="260" y="700" width="110" height="50" as="geometry"/>
                </mxCell>
                <mxCell id="66" style="edgeStyle=none;html=1;exitX=0.5;exitY=1;exitDx=0;exitDy=0;strokeColor=#0e0101;strokeWidth=2;fontFamily=Times New Roman;fontSize=17;fontColor=#0e0101;" edge="1" parent="1" source="59" target="62">
                    <mxGeometry relative="1" as="geometry"/>
                </mxCell>
                <mxCell id="59" value="&lt;b&gt;takes&lt;/b&gt;" style="rhombus;whiteSpace=wrap;html=1;strokeColor=#0e0101;strokeWidth=2;fontFamily=Times New Roman;fontSize=18;fontColor=#000000;fillColor=#ffffff;" vertex="1" parent="1">
                    <mxGeometry x="125" y="840" width="100" height="110" as="geometry"/>
                </mxCell>
                <mxCell id="82" style="edgeStyle=none;html=1;exitX=0;exitY=1;exitDx=0;exitDy=0;entryX=1;entryY=0;entryDx=0;entryDy=0;strokeColor=#0e0101;strokeWidth=2;fontFamily=Times New Roman;fontSize=18;fontColor=#0e0101;" edge="1" parent="1" source="62" target="65">
                    <mxGeometry relative="1" as="geometry"/>
                </mxCell>
                <mxCell id="83" style="edgeStyle=none;html=1;exitX=0.5;exitY=1;exitDx=0;exitDy=0;strokeColor=#0e0101;strokeWidth=2;fontFamily=Times New Roman;fontSize=18;fontColor=#0e0101;" edge="1" parent="1" source="62" target="64">
                    <mxGeometry relative="1" as="geometry"/>
                </mxCell>
                <mxCell id="84" style="edgeStyle=none;html=1;exitX=1;exitY=1;exitDx=0;exitDy=0;strokeColor=#0e0101;strokeWidth=2;fontFamily=Times New Roman;fontSize=18;fontColor=#0e0101;" edge="1" parent="1" source="62" target="63">
                    <mxGeometry relative="1" as="geometry"/>
                </mxCell>
                <mxCell id="62" value="&lt;font color=&quot;#0d0202&quot; style=&quot;font-size: 18px;&quot; face=&quot;Times New Roman&quot;&gt;&lt;b&gt;result&lt;/b&gt;&lt;/font&gt;" style="whiteSpace=wrap;html=1;fillColor=#FFFFFF;strokeColor=#36393d;" vertex="1" parent="1">
                    <mxGeometry x="80" y="1060" width="190" height="80" as="geometry"/>
                </mxCell>
                <mxCell id="98" style="edgeStyle=none;html=1;exitX=0;exitY=1;exitDx=0;exitDy=0;strokeColor=#0e0101;strokeWidth=2;fontFamily=Times New Roman;fontSize=18;fontColor=#0e0101;" edge="1" parent="1" source="63" target="96">
                    <mxGeometry relative="1" as="geometry"/>
                </mxCell>
                <mxCell id="63" value="&lt;font face=&quot;Times New Roman&quot; color=&quot;#000000&quot;&gt;&lt;span style=&quot;font-size: 14px;&quot;&gt;&lt;b&gt;courseId&lt;/b&gt;&lt;/span&gt;&lt;/font&gt;" style="ellipse;whiteSpace=wrap;html=1;fillColor=#ffffff;strokeWidth=2;strokeColor=#0e0101;" vertex="1" parent="1">
                    <mxGeometry x="260" y="1160" width="110" height="50" as="geometry"/>
                </mxCell>
                <mxCell id="97" style="edgeStyle=none;html=1;exitX=1;exitY=1;exitDx=0;exitDy=0;strokeColor=#0e0101;strokeWidth=2;fontFamily=Times New Roman;fontSize=18;fontColor=#0e0101;" edge="1" parent="1" source="64" target="96">
                    <mxGeometry relative="1" as="geometry"/>
                </mxCell>
                <mxCell id="64" value="&lt;font face=&quot;Times New Roman&quot; color=&quot;#000000&quot;&gt;&lt;span style=&quot;font-size: 14px;&quot;&gt;&lt;b&gt;examId&lt;/b&gt;&lt;/span&gt;&lt;/font&gt;" style="ellipse;whiteSpace=wrap;html=1;fillColor=#ffffff;strokeWidth=2;strokeColor=#0e0101;" vertex="1" parent="1">
                    <mxGeometry x="110" y="1190" width="110" height="50" as="geometry"/>
                </mxCell>
                <mxCell id="95" style="edgeStyle=none;html=1;exitX=0.5;exitY=1;exitDx=0;exitDy=0;strokeColor=#0e0101;strokeWidth=2;fontFamily=Times New Roman;fontSize=18;fontColor=#0e0101;" edge="1" parent="1" source="65" target="94">
                    <mxGeometry relative="1" as="geometry"/>
                </mxCell>
                <mxCell id="65" value="&lt;font face=&quot;Times New Roman&quot; color=&quot;#000000&quot;&gt;&lt;span style=&quot;font-size: 14px;&quot;&gt;&lt;b&gt;resultId&lt;/b&gt;&lt;/span&gt;&lt;/font&gt;" style="ellipse;whiteSpace=wrap;html=1;fillColor=#ffffff;strokeWidth=2;strokeColor=#0e0101;" vertex="1" parent="1">
                    <mxGeometry x="-40" y="1170" width="110" height="50" as="geometry"/>
                </mxCell>
                <mxCell id="67" value="&lt;b&gt;&lt;font style=&quot;font-size: 19px;&quot;&gt;p.k&lt;/font&gt;&lt;/b&gt;" style="whiteSpace=wrap;html=1;strokeColor=#0e0101;strokeWidth=2;fontFamily=Times New Roman;fontSize=17;fontColor=#0e0101;fillColor=#ffffff;" vertex="1" parent="1">
                    <mxGeometry x="1220" y="240" width="120" height="60" as="geometry"/>
                </mxCell>
                <mxCell id="68" value="&lt;font style=&quot;font-size: 20px;&quot;&gt;&lt;b&gt;f.k&lt;/b&gt;&lt;/font&gt;" style="whiteSpace=wrap;html=1;strokeColor=#0e0101;strokeWidth=2;fontFamily=Times New Roman;fontSize=17;fontColor=#0e0101;fillColor=#ffffff;" vertex="1" parent="1">
                    <mxGeometry x="1220" y="330" width="120" height="60" as="geometry"/>
                </mxCell>
                <mxCell id="70" value="&lt;font face=&quot;Times New Roman&quot; color=&quot;#000000&quot;&gt;&lt;span style=&quot;font-size: 14px;&quot;&gt;&lt;b&gt;Marks&lt;/b&gt;&lt;/span&gt;&lt;/font&gt;" style="ellipse;whiteSpace=wrap;html=1;fillColor=#ffffff;strokeWidth=2;strokeColor=#0e0101;" vertex="1" parent="1">
                    <mxGeometry x="370" y="330" width="110" height="50" as="geometry"/>
                </mxCell>
                <mxCell id="74" value="&lt;b&gt;&lt;font style=&quot;font-size: 18px;&quot;&gt;p.k&lt;/font&gt;&lt;/b&gt;" style="text;strokeColor=none;align=center;fillColor=none;html=1;verticalAlign=middle;whiteSpace=wrap;rounded=0;strokeWidth=7;fontFamily=Times New Roman;fontSize=17;fontColor=#0e0101;" vertex="1" parent="1">
                    <mxGeometry x="140" y="-140" width="60" height="30" as="geometry"/>
                </mxCell>
                <mxCell id="77" value="&lt;b&gt;&lt;font style=&quot;font-size: 18px;&quot;&gt;f.k&lt;/font&gt;&lt;/b&gt;" style="text;strokeColor=none;align=center;fillColor=none;html=1;verticalAlign=middle;whiteSpace=wrap;rounded=0;strokeWidth=7;fontFamily=Times New Roman;fontSize=17;fontColor=#0e0101;" vertex="1" parent="1">
                    <mxGeometry x="330" y="-80" width="60" height="30" as="geometry"/>
                </mxCell>
                <mxCell id="79" value="&lt;b&gt;&lt;font style=&quot;font-size: 18px;&quot;&gt;p.k&lt;/font&gt;&lt;/b&gt;" style="text;strokeColor=none;align=center;fillColor=none;html=1;verticalAlign=middle;whiteSpace=wrap;rounded=0;strokeWidth=7;fontFamily=Times New Roman;fontSize=17;fontColor=#0e0101;" vertex="1" parent="1">
                    <mxGeometry x="690" y="-150" width="60" height="30" as="geometry"/>
                </mxCell>
                <mxCell id="85" value="&lt;b&gt;&lt;font style=&quot;font-size: 18px;&quot;&gt;p.k&lt;/font&gt;&lt;/b&gt;" style="text;strokeColor=none;align=center;fillColor=none;html=1;verticalAlign=middle;whiteSpace=wrap;rounded=0;strokeWidth=7;fontFamily=Times New Roman;fontSize=17;fontColor=#0e0101;" vertex="1" parent="1">
                    <mxGeometry x="740" y="830" width="60" height="30" as="geometry"/>
                </mxCell>
                <mxCell id="88" value="&lt;b&gt;&lt;font style=&quot;font-size: 18px;&quot;&gt;f.k&lt;/font&gt;&lt;/b&gt;" style="text;strokeColor=none;align=center;fillColor=none;html=1;verticalAlign=middle;whiteSpace=wrap;rounded=0;strokeWidth=7;fontFamily=Times New Roman;fontSize=17;fontColor=#0e0101;" vertex="1" parent="1">
                    <mxGeometry x="935" y="555" width="60" height="30" as="geometry"/>
                </mxCell>
                <mxCell id="94" value="&lt;b&gt;&lt;font style=&quot;font-size: 18px;&quot;&gt;p.k&lt;/font&gt;&lt;/b&gt;" style="text;strokeColor=none;align=center;fillColor=none;html=1;verticalAlign=middle;whiteSpace=wrap;rounded=0;strokeWidth=7;fontFamily=Times New Roman;fontSize=17;fontColor=#0e0101;" vertex="1" parent="1">
                    <mxGeometry x="-15" y="1260" width="60" height="30" as="geometry"/>
                </mxCell>
                <mxCell id="96" value="&lt;b&gt;&lt;font style=&quot;font-size: 18px;&quot;&gt;f.k&lt;/font&gt;&lt;/b&gt;" style="text;strokeColor=none;align=center;fillColor=none;html=1;verticalAlign=middle;whiteSpace=wrap;rounded=0;strokeWidth=7;fontFamily=Times New Roman;fontSize=17;fontColor=#0e0101;" vertex="1" parent="1">
                    <mxGeometry x="250" y="1250" width="60" height="30" as="geometry"/>
                </mxCell>
                <mxCell id="99" value="&lt;b&gt;&lt;font style=&quot;font-size: 21px;&quot;&gt;Primary Key&lt;/font&gt;&lt;/b&gt;" style="text;strokeColor=none;align=center;fillColor=none;html=1;verticalAlign=middle;whiteSpace=wrap;rounded=0;strokeWidth=14;fontFamily=Times New Roman;fontSize=20;fontColor=#0e0101;" vertex="1" parent="1">
                    <mxGeometry x="1360" y="255" width="150" height="30" as="geometry"/>
                </mxCell>
                <mxCell id="100" value="&lt;b&gt;&lt;font style=&quot;font-size: 21px;&quot;&gt;Foreign Key&lt;/font&gt;&lt;/b&gt;" style="text;strokeColor=none;align=center;fillColor=none;html=1;verticalAlign=middle;whiteSpace=wrap;rounded=0;strokeWidth=14;fontFamily=Times New Roman;fontSize=20;fontColor=#0e0101;" vertex="1" parent="1">
                    <mxGeometry x="1360" y="340" width="150" height="30" as="geometry"/>
                </mxCell>
                <mxCell id="101" value="&lt;b&gt;&lt;font style=&quot;font-size: 31px;&quot;&gt;ER-Diagram of Student Result Management System&lt;/font&gt;&lt;/b&gt;" style="text;strokeColor=none;align=center;fillColor=none;html=1;verticalAlign=middle;whiteSpace=wrap;rounded=0;strokeWidth=14;fontFamily=Times New Roman;fontSize=21;fontColor=#0e0101;" vertex="1" parent="1">
                    <mxGeometry x="67" y="-260" width="728.5" height="110" as="geometry"/>
                </mxCell>
            </root>
        </mxGraphModel>
    </diagram>
</mxfile>